<?xml version="1.0" standalone="no"?>
<!DOCTYPE svg PUBLIC "-//W3C//DTD SVG 1.1//EN" "http://www.w3.org/Graphics/SVG/1.1/DTD/svg11.dtd" >
<svg xmlns="http://www.w3.org/2000/svg">
<metadata>
This is a custom SVG webfont generated by Font Squirrel.
Designer    : David Berlow
Foundry URL : http://www.fontbureau.com/
</metadata>
<defs>
<font id="webfonty75zhcw1" horiz-adv-x="288" >
<font-face units-per-em="512" ascent="409" descent="-103" />
<missing-glyph horiz-adv-x="112" />
<glyph unicode=" "  horiz-adv-x="112" />
<glyph unicode="&#x09;" horiz-adv-x="112" />
<glyph unicode="&#xa0;" horiz-adv-x="112" />
<glyph unicode="!" horiz-adv-x="160" d="M114 368l1 -256h-70l-1 256h70zM125 44q0 -15 -12.5 -31t-32.5 -16q-19 0 -32.5 16t-13.5 31t13.5 30.5t32.5 15.5q20 0 32.5 -16t12.5 -30z" />
<glyph unicode="&#x22;" d="M166 366h62v-125h-62v125zM60 366h62v-125h-62v125z" />
<glyph unicode="#" horiz-adv-x="336" d="M30 212v54h292v-54h-292zM213 0h-52l68 368h53zM306 154v-54h-292v54h292zM121 368h53l-68 -368h-53z" />
<glyph unicode="$" horiz-adv-x="320" d="M166 371q33 0 63.5 -11.5t42.5 -19.5l-20 -64h-2q-17 14 -36.5 23.5t-51.5 9.5q-33 0 -46.5 -9t-13.5 -25t16 -26t72 -30q54 -18 81 -43t27 -69q0 -49 -35.5 -79.5t-107.5 -30.5q-39 0 -75.5 16t-58.5 35l26 63h3q22 -25 52 -40t57 -15q35 0 52.5 12t17.5 35 q0 25 -23 37.5t-65 24.5q-51 15 -79.5 37.5t-28.5 70.5q0 39 30.5 68.5t102.5 29.5zM135 416h49v-463h-49v463z" />
<glyph unicode="%" horiz-adv-x="448" d="M20 279q0 39 27.5 65t63.5 26q38 0 64 -26.5t26 -64.5t-26 -64.5t-64 -26.5q-32 0 -61.5 24.5t-29.5 66.5zM68 279q0 -17 12.5 -30t30.5 -13q17 0 29.5 13t12.5 30t-12.5 30t-29.5 13q-18 0 -30.5 -13t-12.5 -30zM246 88q0 39 27.5 65t63.5 26q38 0 64 -26.5t26 -64.5 t-26 -64.5t-64 -26.5q-32 0 -61.5 24.5t-29.5 66.5zM294 88q0 -17 12.5 -30t30.5 -13q17 0 29.5 13t12.5 30t-12.5 30t-29.5 13q-18 0 -30.5 -13t-12.5 -30zM102 -13l-39 29l275 368l41 -29z" />
<glyph unicode="&#x26;" horiz-adv-x="400" d="M207 283q0 14 -10.5 22.5t-25.5 8.5q-14 0 -25.5 -9t-11.5 -25t14 -31l28 -29l212 -220h-87l-180 187q-23 24 -38.5 46t-15.5 53q0 35 28.5 58.5t78.5 23.5q46 0 72 -21.5t26 -56.5t-21 -56.5t-75 -50.5q-30 -15 -53.5 -31.5t-23.5 -43.5q0 -25 17.5 -39t58.5 -14 q63 0 95.5 32t32.5 105h72q-1 -85 -54 -141.5t-151 -56.5q-80 0 -113 30.5t-33 73.5q0 41 26 68t79 51q31 14 54.5 29.5t23.5 36.5z" />
<glyph unicode="'" horiz-adv-x="192" d="M64 366h62v-125h-62v125z" />
<glyph unicode="(" horiz-adv-x="192" d="M103 160q0 -69 14.5 -108.5t41.5 -79.5v-8l-47 -28q-36 51 -58 107.5t-22 116.5t22 115.5t58 106.5l47 -29v-8q-26 -36 -41 -79.5t-15 -105.5z" />
<glyph unicode=")" horiz-adv-x="192" d="M88 160q0 62 -15 105.5t-41 79.5v8l47 29q36 -51 58 -106.5t22 -115.5t-22 -116.5t-58 -107.5l-47 28v8q27 40 41.5 79.5t14.5 108.5z" />
<glyph unicode="*" horiz-adv-x="272" d="M159 291l67 27l17 -53l-69 -17l47 -52l-46 -35l-39 63l-39 -62l-45 35l48 52l-71 17l17 54l69 -28l-7 70h57z" />
<glyph unicode="+" horiz-adv-x="352" d="M31 191h114v121h59v-121h116v-60h-116v-113h-59v113h-114v60z" />
<glyph unicode="," horiz-adv-x="160" d="M34 -92l36 93q-29 19 -35.5 28t-6.5 18q0 22 15.5 38t36.5 16t36 -18t15 -36q0 -10 -9.5 -33t-20.5 -46l-28 -60h-39z" />
<glyph unicode="-" horiz-adv-x="208" d="M30 196h148v-67h-148v67z" />
<glyph unicode="." horiz-adv-x="160" d="M131 51q0 -18 -13.5 -36.5t-37.5 -18.5q-21 0 -36.5 18t-15.5 37q0 18 15.5 36t36.5 18q24 0 37.5 -18t13.5 -36z" />
<glyph unicode="/" horiz-adv-x="224" d="M58 -29l-55 21l164 394l54 -20z" />
<glyph unicode="0" d="M144 -6q-55 0 -90 46t-35 143q0 99 35 145.5t90 46.5t90 -46.5t35 -145.5q0 -97 -35 -143t-90 -46zM144 57q23 0 37 22t14 104q0 83 -14 106t-37 23q-24 0 -38 -22.5t-14 -106.5q0 -82 14 -104t38 -22z" />
<glyph unicode="1" horiz-adv-x="224" d="M108 268l-49 -60l-39 31v12l107 123h51v-374h-70v268z" />
<glyph unicode="2" d="M13 0v28l127 145q19 21 34 42.5t15 47.5q0 21 -12.5 34.5t-35.5 13.5q-22 0 -40 -17t-27 -40l-52 37v10q19 35 50.5 55t68.5 20q54 0 88 -29.5t34 -74.5q0 -34 -16.5 -64t-56.5 -71l-72 -77h157v-60h-262z" />
<glyph unicode="3" d="M24 317q14 23 44 41.5t77 18.5q48 0 80 -26t32 -65q0 -34 -19.5 -54.5t-45.5 -23.5v-5q32 -7 55 -30.5t23 -64.5q0 -49 -34.5 -81t-93.5 -32q-56 0 -88.5 24.5t-43.5 57.5v10l52 25q7 -23 28 -38.5t48 -15.5q26 0 44 13.5t18 44.5q0 26 -18 40.5t-59 14.5h-44v57h43 q28 0 46 10.5t18 32.5q0 20 -12.5 30.5t-39.5 10.5q-23 0 -39 -11.5t-22 -24.5l-49 30v11z" />
<glyph unicode="4" d="M240 128h48v-58h-48v-70h-70v70h-169v42l185 263h54v-247zM84 128h86v127l-86 -122v-5z" />
<glyph unicode="5" d="M40 368h210v-63h-152l-2 -80q10 5 26 10t36 5q50 0 82 -30t32 -84q0 -62 -35.5 -96.5t-89.5 -34.5q-52 0 -84 18.5t-49 51.5v10l55 31q9 -25 27.5 -37t43.5 -12q29 0 45.5 16.5t16.5 45.5t-16.5 45.5t-48.5 16.5q-29 0 -50.5 -8.5t-38.5 -19.5l-14 13z" />
<glyph unicode="6" d="M219 368v-7q-16 -17 -56 -73t-49 -73l3 -2q8 5 20 9t26 4q49 0 80.5 -25.5t31.5 -80.5q0 -54 -33.5 -90t-95.5 -36q-63 0 -97 33t-34 85q0 31 9.5 65t40.5 79l78 112h76zM145 54q29 0 45 17t16 43q0 29 -16.5 45t-44.5 16q-26 0 -44 -16t-18 -45q0 -24 15.5 -42t46.5 -18 z" />
<glyph unicode="7" d="M51 8l135 297h-164v63h253v-28l-151 -340h-73v8z" />
<glyph unicode="8" d="M99 271q0 -19 12.5 -32t32.5 -13t32 13.5t12 31.5q0 19 -12 32t-32 13t-32.5 -13t-12.5 -32zM90 110q1 -24 14.5 -40t39.5 -16t39.5 16t13.5 40t-14 39.5t-39 15.5q-26 0 -40 -16t-14 -39zM20 108q0 32 17 56.5t49 34.5v3q-23 8 -38 29t-15 53q0 39 32.5 65.5t78.5 26.5 q47 0 79 -27t32 -65q0 -35 -17.5 -54.5t-37.5 -27.5v-3q35 -11 51.5 -35t16.5 -56q0 -51 -33 -82t-91 -31q-60 0 -92 32.5t-32 80.5z" />
<glyph unicode="9" d="M69 0v7q22 25 55.5 71.5t49.5 74.5l-3 2q-8 -5 -20 -10.5t-26 -5.5q-49 0 -80.5 27t-31.5 82q0 54 33.5 90t95.5 36q63 0 97.5 -33t34.5 -85q0 -31 -10 -65t-41 -79l-78 -112h-76zM143 314q-29 0 -45 -17.5t-16 -43.5q0 -29 16.5 -45.5t44.5 -16.5q26 0 44 16.5t18 45.5 q0 24 -15.5 42.5t-46.5 18.5z" />
<glyph unicode=":" horiz-adv-x="160" d="M127 47q0 -14 -14 -31.5t-32 -17.5q-20 0 -34 17.5t-14 31.5q0 15 13.5 32.5t34.5 17.5t33.5 -17.5t12.5 -32.5zM127 208q0 -14 -14 -31.5t-32 -17.5q-20 0 -34 17.5t-14 31.5q0 15 13.5 32.5t34.5 17.5t33.5 -17.5t12.5 -32.5z" />
<glyph unicode=";" horiz-adv-x="160" d="M40 -79l32 83q-26 17 -32 25.5t-6 16.5q0 20 14 34t33 14t32.5 -16t13.5 -32q0 -9 -8.5 -30t-18.5 -41l-25 -54h-35zM126 208q0 -14 -14 -31.5t-32 -17.5q-20 0 -34 17.5t-14 31.5q0 15 13.5 32.5t34.5 17.5t33.5 -17.5t12.5 -32.5z" />
<glyph unicode="&#x3c;" horiz-adv-x="352" d="M310 83v-75h-2l-268 117v69l268 118h2v-75l-194 -75v-4z" />
<glyph unicode="=" horiz-adv-x="352" d="M42 245h268v-61h-268v61zM42 133h268v-61h-268v61z" />
<glyph unicode="&#x3e;" horiz-adv-x="352" d="M236 158v4l-194 75v75h2l268 -118v-69l-268 -117h-2v75z" />
<glyph unicode="?" horiz-adv-x="272" d="M170 273q0 17 -11.5 27t-35.5 10q-23 0 -38.5 -8.5t-22.5 -18.5h-5l-33 54q14 13 40 24t70 11q52 0 81.5 -26.5t29.5 -66.5q0 -27 -12 -46t-27 -35q-17 -18 -28 -33.5t-11 -34.5v-12h-74v14q0 29 11.5 47t30.5 36q14 13 24.5 27.5t10.5 30.5zM177 44q0 -15 -12.5 -31 t-32.5 -16q-19 0 -32.5 16t-13.5 31t13.5 30.5t32.5 15.5q20 0 32.5 -16t12.5 -30z" />
<glyph unicode="@" horiz-adv-x="432" d="M323 2q-17 -11 -43.5 -19.5t-61.5 -8.5q-92 0 -145 53.5t-53 145.5q0 85 60.5 142.5t144.5 57.5q76 0 128.5 -50.5t52.5 -121.5q0 -66 -28.5 -97.5t-67.5 -31.5q-30 0 -43.5 10.5t-14.5 23.5h-4q-11 -16 -28.5 -24.5t-42.5 -8.5q-29 0 -50 20.5t-21 58.5q0 49 31.5 91 t75.5 42q22 0 34.5 -8t18.5 -23h3l8 21h44l-34 -123q-2 -8 -2 -14q0 -8 3 -15q6 -12 24 -12q20 0 35.5 23.5t15.5 62.5q0 56 -36.5 95t-101.5 39t-111.5 -47t-46.5 -112q0 -77 41.5 -116.5t113.5 -39.5q27 0 46.5 5.5t36.5 15.5l18 -28v-7zM257 213q-5 11 -14 17.5t-25 6.5 q-23 0 -42 -26.5t-19 -57.5q0 -36 32 -36q16 0 27 6t20 14z" />
<glyph unicode="A" horiz-adv-x="368" d="M259 86h-151l-36 -86h-76l159 368h59l158 -368h-76zM128 143h109l-52 126h-3z" />
<glyph unicode="B" horiz-adv-x="336" d="M48 0v368h147q62 0 87 -25t25 -63t-20 -58.5t-41 -22.5v-4q32 -5 53 -27t21 -60q0 -54 -35 -81t-95 -27h-142zM119 310v-93h62q26 0 38.5 14t12.5 36q0 19 -12.5 31t-38.5 12h-62zM119 160v-102h61q28 0 47 11.5t19 40.5q0 23 -17.5 36.5t-48.5 13.5h-61z" />
<glyph unicode="C" horiz-adv-x="336" d="M333 25q-26 -17 -56.5 -25t-63.5 -8q-84 0 -137.5 55t-53.5 137q0 86 57 139t139 53q29 0 59.5 -6.5t57.5 -26.5l-33 -64h-4q-15 13 -35 21.5t-45 8.5q-60 0 -89 -35t-29 -90q0 -56 32.5 -91t85.5 -35q23 0 45.5 8.5t37.5 19.5h3z" />
<glyph unicode="D" horiz-adv-x="400" d="M48 368h132q94 0 143 -46.5t49 -137.5q0 -87 -53 -135.5t-139 -48.5h-132v368zM121 61h46q66 0 95 30t29 93q0 59 -29 91t-95 32h-46v-246z" />
<glyph unicode="E" horiz-adv-x="304" d="M48 368h237v-63h-164v-90h129v-62h-129v-92h173v-61h-246v368z" />
<glyph unicode="F" d="M48 368h240v-63h-167v-90h134v-62h-134v-153h-73v368z" />
<glyph unicode="G" horiz-adv-x="384" d="M352 29q-24 -16 -58 -26.5t-86 -10.5q-78 0 -132 52.5t-54 139.5q0 86 54.5 139t134.5 53q38 0 65.5 -8t53.5 -27l-34 -64h-4q-12 14 -32 22.5t-49 8.5q-54 0 -83.5 -33t-29.5 -91q0 -60 33 -94t84 -34q21 0 39 3.5t30 8.5v76h-70v59h138v-174z" />
<glyph unicode="H" horiz-adv-x="400" d="M48 368h73v-153h158v153h73v-368h-73v153h-158v-153h-73v368z" />
<glyph unicode="I" horiz-adv-x="176" d="M48 368h73v-368h-73v368z" />
<glyph unicode="J" d="M176 368h73v-249q0 -67 -32.5 -96.5t-83.5 -29.5q-57 0 -84.5 22t-37.5 57l65 26h4q5 -19 18.5 -30.5t34.5 -11.5q19 0 31 11.5t12 35.5v265z" />
<glyph unicode="K" horiz-adv-x="336" d="M48 368h73v-155h4l124 155h81v-4l-146 -175l157 -185v-4h-86l-128 157h-6v-157h-73v368z" />
<glyph unicode="L" d="M48 368h73v-306h151v-62h-224v368z" />
<glyph unicode="M" horiz-adv-x="512" d="M48 0v368h52l154 -274h5l162 274h43v-368h-69v203h-4l-121 -203h-34l-116 203h-4v-203h-68z" />
<glyph unicode="N" horiz-adv-x="400" d="M48 0v368h59l173 -234h4v234h68v-368h-55l-178 236h-3v-236h-68z" />
<glyph unicode="O" horiz-adv-x="432" d="M22 184q0 81 56.5 136.5t137.5 55.5q83 0 138.5 -55.5t55.5 -136.5t-56.5 -136.5t-137.5 -55.5q-82 0 -138 55.5t-56 136.5zM334 184q0 52 -32 88.5t-86 36.5t-86 -36.5t-32 -88.5t32 -88.5t86 -36.5t86 36.5t32 88.5z" />
<glyph unicode="P" horiz-adv-x="320" d="M121 306v-116h56q23 0 39 14.5t16 45.5q0 30 -14.5 43t-35.5 13h-61zM48 0v368h143q50 0 81.5 -33.5t31.5 -85.5q0 -54 -31.5 -86t-82.5 -32h-69v-131h-73z" />
<glyph unicode="Q" horiz-adv-x="432" d="M240 148l162 -162l-42 -44l-162 162zM22 184q0 82 58 137t136 55q83 0 138.5 -57.5t55.5 -132.5q0 -83 -56.5 -137t-135.5 -54q-89 0 -142.5 54t-53.5 135zM335 184q0 53 -31.5 89.5t-87.5 36.5t-87.5 -36.5t-31.5 -89.5q0 -54 32 -90.5t87 -36.5t87 36.5t32 90.5z" />
<glyph unicode="R" horiz-adv-x="336" d="M154 144h-33v-144h-73v368h150q52 0 84 -28.5t32 -76.5q0 -54 -24 -80.5t-61 -31.5v-4l98 -143v-4h-81zM121 306v-106h69q23 0 36 15t13 41q0 28 -16 39t-33 11h-69z" />
<glyph unicode="S" horiz-adv-x="304" d="M161 376q33 0 63.5 -11.5t42.5 -20.5l-20 -65h-2q-16 12 -39.5 23t-49.5 11q-25 0 -39.5 -10t-14.5 -24t14.5 -25.5t68.5 -33.5q51 -20 77 -47.5t26 -65.5q0 -53 -34.5 -84t-97.5 -31q-48 0 -84 14.5t-57 34.5l27 68h3q17 -24 45.5 -41t63.5 -17q33 0 47.5 13t14.5 34 q0 24 -19.5 37.5t-59.5 28.5q-49 17 -76.5 43t-27.5 70q0 46 35.5 72.5t92.5 26.5z" />
<glyph unicode="T" horiz-adv-x="304" d="M0 368h304v-65h-117v-303h-70v303h-117v65z" />
<glyph unicode="U" horiz-adv-x="352" d="M327 141q0 -74 -39 -111.5t-112 -37.5q-76 0 -113.5 39t-37.5 110v227h71v-235q0 -34 18.5 -58.5t61.5 -24.5q40 0 60 19t20 64v235h71v-227z" />
<glyph unicode="V" horiz-adv-x="352" d="M198 0h-49l-148 365v3h78l94 -250h5l99 250h74v-3z" />
<glyph unicode="W" horiz-adv-x="496" d="M374 0h-41l-88 252h-1l-96 -252h-41l-106 364v4h75l55 -232h5l89 232h45l83 -232h5l65 232h72v-4z" />
<glyph unicode="X" horiz-adv-x="320" d="M318 0h-82l-76 128h-3l-82 -128h-73v3l118 187l-113 175v3h79l73 -119h3l80 119h71v-3l-116 -175l121 -187v-3z" />
<glyph unicode="Y" horiz-adv-x="336" d="M204 0h-73v169l-131 196v3h79l88 -131h3l90 131h76v-3l-132 -196v-169z" />
<glyph unicode="Z" horiz-adv-x="320" d="M25 368h278v-39l-188 -263v-4h189v-62h-288v40l185 261v4h-176v63z" />
<glyph unicode="[" horiz-adv-x="176" d="M47 368h117v-49h-52v-357h52v-49h-117v455z" />
<glyph unicode="\" horiz-adv-x="208" d="M-5 366l54 20l164 -394l-55 -21z" />
<glyph unicode="]" horiz-adv-x="176" d="M129 -87h-117v49h52v357h-52v49h117v-455z" />
<glyph unicode="^" d="M146 316h-4l-74 -122h-67v2l116 187h54l116 -187v-2h-66z" />
<glyph unicode="_" d="M0 -32h288v-59h-288v59z" />
<glyph unicode="`" horiz-adv-x="256" d="M178 294v-6h-68l-50 73v7h68z" />
<glyph unicode="a" d="M198 0q-1 6 -2.5 13.5t-2.5 14.5h-3q-10 -15 -28.5 -23.5t-51.5 -8.5q-42 0 -64.5 20.5t-22.5 58.5q0 36 31.5 60.5t97.5 24.5h40v9q0 16 -9 25t-40 9q-26 0 -50 -7t-33 -16h-5l-16 50q11 8 42.5 17t66.5 9q48 0 78 -21.5t30 -63.5v-134q0 -5 2.5 -16t5.5 -16v-5h-66z M160 114q-37 0 -54 -9.5t-17 -27.5q0 -14 11 -23t31 -9q28 0 44.5 13.5t16.5 43.5v12h-32z" />
<glyph unicode="b" horiz-adv-x="320" d="M180 -5q-30 0 -47.5 8t-31.5 25h-4v-28h-65v384h68v-168h3q11 19 30.5 29.5t44.5 10.5q54 0 86 -37t32 -94q0 -53 -32 -91.5t-84 -38.5zM95 125q0 -38 18 -57.5t49 -19.5q32 0 48 21t16 56q0 33 -16.5 54.5t-47.5 21.5q-30 0 -48.5 -19t-18.5 -57z" />
<glyph unicode="c" horiz-adv-x="240" d="M22 127q0 60 35 94.5t96 34.5q24 0 46.5 -7.5t42.5 -24.5l-28 -53h-2q-15 19 -30.5 25t-29.5 6q-26 0 -43 -19.5t-17 -55.5q0 -42 17 -59t44 -17q18 0 34 5.5t28 17.5h1l24 -49q-17 -14 -39 -22t-49 -8q-60 0 -95 35.5t-35 96.5z" />
<glyph unicode="d" horiz-adv-x="320" d="M141 -5q-54 0 -85.5 36.5t-31.5 93.5q0 59 32.5 95t84.5 36q27 0 48 -9t32 -26h3v163h68v-384h-65v28h-3q-9 -15 -29.5 -24t-53.5 -9zM224 124q0 38 -17 57t-48 19q-30 0 -47.5 -19.5t-17.5 -56.5q0 -41 17.5 -59t47.5 -18q28 0 46.5 17.5t18.5 59.5z" />
<glyph unicode="e" d="M87 101q4 -25 22.5 -40t48.5 -15q27 0 43 7t32 22h3l26 -48q-20 -16 -45.5 -24t-64.5 -8q-58 0 -94 35t-36 95q0 55 36 93t94 38q57 0 88.5 -37t31.5 -94v-24h-185zM211 146q-2 25 -15.5 42t-43.5 17q-28 0 -45.5 -17.5t-19.5 -41.5h124z" />
<glyph unicode="f" horiz-adv-x="160" d="M6 250h42v75q0 31 19 49.5t46 18.5q34 0 52 -9l-8 -53h-3q-5 4 -17 4t-16.5 -9t-4.5 -21v-55h50v-53h-50v-197h-68v197h-42v53z" />
<glyph unicode="g" horiz-adv-x="320" d="M224 125q0 36 -17 56.5t-49 20.5q-30 0 -47 -20.5t-17 -56.5q0 -41 17 -59t47 -18q28 0 47 17.5t19 59.5zM225 35h-3q-11 -17 -30.5 -27t-51.5 -10q-52 0 -84 33t-32 94q0 59 32 95t83 36q33 0 54 -11.5t31 -25.5h3v31h65v-240q0 -55 -37 -89t-97 -34q-32 0 -62 6t-48 17 l22 53h4q16 -9 36.5 -15.5t46.5 -6.5q32 0 50 18.5t18 47.5v28z" />
<glyph unicode="h" d="M102 214q8 17 24.5 29.5t44.5 12.5q42 0 65.5 -25t23.5 -69v-162h-68v156q0 22 -9.5 34t-29.5 12q-27 0 -40 -16.5t-13 -48.5v-137h-68v384h67v-170h3z" />
<glyph unicode="i" horiz-adv-x="128" d="M32 0v250h68v-250h-68zM110 328q0 -13 -15 -29.5t-29 -16.5q-15 0 -29.5 16t-14.5 30t14.5 30t29.5 16t29.5 -16t14.5 -30z" />
<glyph unicode="j" horiz-adv-x="128" d="M100 -20q0 -50 -23 -71.5t-54 -21.5q-17 0 -28.5 1.5t-19.5 3.5l7 53h3q5 -2 22 -2q9 0 17 7t8 27v273h68v-270zM110 328q0 -13 -15 -29.5t-29 -16.5q-15 0 -29.5 16t-14.5 30t14.5 30t29.5 16t29.5 -16t14.5 -30z" />
<glyph unicode="k" horiz-adv-x="256" d="M32 0v384h67v-223h11l79 89h69v-5l-91 -98v-4l98 -137v-6h-73l-79 111h-13v-111h-68z" />
<glyph unicode="l" horiz-adv-x="128" d="M32 0v384h68v-384h-68z" />
<glyph unicode="m" horiz-adv-x="448" d="M260 0h-68v163q0 16 -9 27.5t-29 11.5q-24 0 -39 -14.5t-15 -42.5v-145h-68v250h65v-36h3q8 17 25.5 29.5t49.5 12.5q28 0 46.5 -11.5t27.5 -32.5h3q10 20 31 32t51 12q39 0 62.5 -25t23.5 -71v-160h-68v163q0 16 -9 27.5t-29 11.5q-24 0 -39 -14.5t-15 -42.5v-145z" />
<glyph unicode="n" d="M100 214q8 18 25.5 30t45.5 12q42 0 65.5 -25t23.5 -69v-162h-68v156q0 23 -9.5 34.5t-29.5 11.5q-26 0 -39.5 -16t-13.5 -49v-137h-68v250h65v-36h3z" />
<glyph unicode="o" horiz-adv-x="304" d="M152 -5q-54 0 -92 35t-38 95q0 62 37.5 96.5t92.5 34.5t92.5 -34.5t37.5 -96.5q0 -60 -36.5 -95t-93.5 -35zM152 49q32 0 45.5 20t13.5 56q0 34 -13.5 55.5t-45.5 21.5t-46.5 -21.5t-14.5 -55.5q0 -35 14.5 -55.5t46.5 -20.5z" />
<glyph unicode="p" horiz-adv-x="320" d="M176 -5q-26 0 -45 6.5t-27 20.5h-4v-134h-68v362h65v-36h3q8 18 28 30t49 12q56 0 87.5 -37t31.5 -94q0 -56 -33.5 -93t-86.5 -37zM97 125q0 -40 17 -58.5t49 -18.5q33 0 48 20.5t15 56.5q0 33 -15.5 54.5t-47.5 21.5q-34 0 -50 -20.5t-16 -55.5z" />
<glyph unicode="q" horiz-adv-x="320" d="M140 -5q-53 0 -84.5 36.5t-31.5 93.5q0 60 31.5 95.5t85.5 35.5q32 0 52.5 -11.5t30.5 -25.5h3v31h65v-362h-68v134h-4q-11 -11 -29.5 -19t-50.5 -8zM224 123q0 35 -17 57t-48 22q-30 0 -47.5 -22t-17.5 -57q0 -36 17.5 -56t47.5 -20q27 0 46 18.5t19 57.5z" />
<glyph unicode="r" horiz-adv-x="192" d="M99 214q9 21 24.5 31.5t43.5 10.5q8 0 14 -1t11 -3l-11 -62h-5q-5 3 -12.5 5.5t-21.5 2.5q-21 0 -31.5 -13.5t-10.5 -41.5v-143h-68v250h65v-36h2z" />
<glyph unicode="s" horiz-adv-x="240" d="M121 256q26 0 51.5 -7.5t35.5 -13.5l-20 -51h-2q-10 7 -26.5 13.5t-40.5 6.5q-19 0 -26.5 -4.5t-7.5 -11.5q0 -9 13.5 -15t46.5 -19q41 -16 59 -33t18 -49q0 -36 -26.5 -56t-68.5 -20q-38 0 -64.5 6.5t-50.5 22.5l23 51h3q16 -16 38.5 -22.5t42.5 -6.5q19 0 27.5 7 t8.5 17q0 13 -17 19l-37 14q-36 13 -58.5 29t-22.5 52q0 35 29.5 53t71.5 18z" />
<glyph unicode="t" horiz-adv-x="176" d="M9 250h41l2 54h63v-54h55v-53h-54v-110q0 -18 7 -25.5t19 -7.5q14 0 22 4h4l5 -54q-7 -3 -18.5 -5.5t-32.5 -2.5q-30 0 -52 18t-22 56v127h-39v53z" />
<glyph unicode="u" d="M192 32q-8 -17 -25.5 -27.5t-50.5 -10.5q-40 0 -62 24.5t-22 59.5v172h68v-161q0 -24 10.5 -34t31.5 -10q22 0 36 14.5t14 43.5v147h68v-250h-65v32h-3z" />
<glyph unicode="v" horiz-adv-x="256" d="M128 97h3l56 153h68v-2l-105 -248h-45l-104 248v2h71z" />
<glyph unicode="w" horiz-adv-x="400" d="M280 93h3l53 157h61v-2l-97 -248h-40l-61 158h-2l-65 -158h-40l-89 248v2h66l49 -158h3l60 158h39z" />
<glyph unicode="x" horiz-adv-x="256" d="M163 128l91 -126v-2h-70l-56 79h-1l-56 -79h-69v2l90 125l-86 121v2h69l53 -73h1l52 73h67v-2z" />
<glyph unicode="y" horiz-adv-x="256" d="M142 -31q-17 -43 -39 -61.5t-56 -18.5q-14 0 -29.5 3t-23.5 9l13 49h4q8 -4 16 -5t16 -1q16 0 25.5 12t20.5 38l9 22l-97 232v2h68l59 -155h3l56 155h68v-2z" />
<glyph unicode="z" horiz-adv-x="256" d="M23 250h214v-35l-131 -160v-3h134v-52h-224v34l129 160v3h-122v53z" />
<glyph unicode="{" horiz-adv-x="176" d="M6 162q18 0 30 15.5t12 44.5v81q0 31 17 48t40 17h60v-49h-28q-14 0 -19 -8.5t-5 -20.5v-84q0 -31 -15.5 -48.5t-28.5 -19.5v-2q13 -1 28.5 -18t15.5 -50v-77q0 -14 5 -21.5t19 -7.5h28v-49h-60q-23 0 -40 16t-17 39v89q0 20 -12 37.5t-30 17.5v50z" />
<glyph unicode="|" horiz-adv-x="208" d="M72 384h64v-496h-64v496z" />
<glyph unicode="}" horiz-adv-x="176" d="M170 112q-18 0 -30 -17.5t-12 -37.5v-89q0 -23 -17 -39t-40 -16h-60v49h28q14 0 19 7.5t5 21.5v77q0 31 14.5 49.5t29.5 18.5v2q-15 1 -29.5 20t-14.5 48v84q0 12 -5 20.5t-19 8.5h-28v49h60q23 0 40 -17t17 -48v-81q0 -29 12 -44.5t30 -15.5v-50z" />
<glyph unicode="~" horiz-adv-x="352" d="M28 136q22 32 45 49.5t49 17.5q32 0 64 -19.5t45 -19.5q11 0 23.5 7.5t28.5 31.5l41 -34q-16 -25 -40 -46.5t-54 -21.5q-32 0 -62.5 19.5t-44.5 19.5t-30 -14.5t-24 -24.5z" />
<glyph unicode="&#xa1;" horiz-adv-x="160" d="M45 -113l-1 261h70l1 -261h-70zM34 216q0 15 12.5 31t32.5 16q19 0 32.5 -16t13.5 -31t-13.5 -30.5t-32.5 -15.5q-20 0 -32.5 16t-12.5 30z" />
<glyph unicode="&#xa2;" horiz-adv-x="256" d="M240 60q-17 -15 -39 -22.5t-49 -7.5q-60 0 -95 35.5t-35 96.5q0 60 35 94.5t96 34.5q24 0 46.5 -7.5t42.5 -24.5l-28 -53h-2q-15 19 -30.5 25t-29.5 6q-26 0 -43 -19.5t-17 -55.5q0 -42 17 -59t44 -17q18 0 34 5.5t28 17.5h1zM128 336h46v-361h-46v361z" />
<glyph unicode="&#xa3;" horiz-adv-x="304" d="M150 120q0 -24 -9 -37.5t-29 -20.5h175v-62h-271v57q31 8 49 21t18 38q0 24 -15 48l-17 30q-14 26 -20 45.5t-6 40.5q0 43 33 70.5t86 27.5t86.5 -22t44.5 -48v-10l-52 -30q-11 24 -29 37.5t-43 13.5q-26 0 -42 -11.5t-16 -33.5q0 -20 7.5 -37.5t19.5 -38.5 q16 -24 23 -43t7 -35zM16 199h213v-55h-213v55z" />
<glyph unicode="&#xa4;" horiz-adv-x="256" d="M76 240q0 -21 15.5 -36.5t36.5 -15.5t36.5 15.5t15.5 36.5t-15.5 36.5t-36.5 15.5t-36.5 -15.5t-15.5 -36.5zM45 122l-33 33l26 27q-17 22 -17 56.5t15 56.5l-24 25l35 35l24 -25q22 17 57 17t57 -17l25 25l35 -35l-25 -25q15 -20 15 -55t-18 -57l28 -28l-33 -33l-28 28 q-22 -17 -56.5 -17t-55.5 15z" />
<glyph unicode="&#xa5;" horiz-adv-x="336" d="M134 170l-134 195v3h76l91 -141h3l93 141h73v-3l-135 -195v-170h-67v170zM34 181h268v-52h-268v52zM34 101h268v-52h-268v52z" />
<glyph unicode="&#xa6;" horiz-adv-x="208" d="M72 384h64v-208h-64v208zM72 96h64v-208h-64v208z" />
<glyph unicode="&#xa7;" horiz-adv-x="256" d="M72 239q-19 8 -29.5 22t-10.5 33q0 38 28 58t69 20q33 0 58.5 -10.5t35.5 -18.5l-22 -56h-2q-11 12 -29.5 21.5t-37.5 9.5q-18 0 -27 -5.5t-9 -13.5q0 -9 17.5 -16.5t42.5 -16.5q42 -15 61.5 -34t19.5 -48q0 -21 -8.5 -38t-26.5 -27q17 -9 26 -22.5t9 -34.5 q0 -33 -26.5 -52.5t-75.5 -19.5q-38 0 -67.5 9.5t-49.5 23.5l25 58h2q11 -16 33.5 -26.5t53.5 -10.5q21 0 31 5t10 14q0 8 -10 15t-40 16q-42 13 -66.5 32t-24.5 51q0 24 10.5 39t29.5 23zM176 173q0 15 -12 23.5t-38 17.5q-18 -2 -25.5 -9.5t-7.5 -16.5q0 -11 11 -20.5 t49 -22.5q13 5 18 12t5 16z" />
<glyph unicode="&#xa8;" horiz-adv-x="256" d="M109 328q0 -12 -11 -27t-30 -15q-17 0 -29.5 14t-12.5 28q0 12 12.5 27t29.5 15q19 0 30 -15t11 -27zM230 328q0 -12 -11 -27t-30 -15q-18 0 -30 14t-12 28q0 12 12 27t30 15q19 0 30 -15t11 -27z" />
<glyph unicode="&#xa9;" horiz-adv-x="400" d="M273 88q-14 -8 -30.5 -13.5t-37.5 -5.5q-52 0 -80.5 33t-28.5 82q0 48 29 80t80 32q18 0 35.5 -5t33.5 -16l-14 -38h-3q-8 7 -19.5 13t-27.5 6q-32 0 -48.5 -20.5t-16.5 -51.5q0 -35 16.5 -55.5t46.5 -20.5q18 0 30 5t20 11h2zM40 184q0 -65 44 -112.5t116 -47.5 q66 0 113 43.5t47 116.5q0 74 -51 117t-109 43q-61 0 -110.5 -43t-49.5 -117zM15 184q0 82 56.5 133.5t128.5 51.5q74 0 129.5 -51.5t55.5 -133.5q0 -88 -55.5 -136.5t-129.5 -48.5q-72 0 -128.5 49t-56.5 136z" />
<glyph unicode="&#xaa;" horiz-adv-x="256" d="M172 143q-1 3 -2 10.5t-1 10.5h-2q-10 -11 -25 -17.5t-39 -6.5q-35 0 -54 18.5t-19 52.5q0 33 25 57t78 24h33v1q0 14 -8.5 22t-31.5 8q-24 0 -41.5 -6.5t-24.5 -13.5h-6l-13 42q10 8 35 16.5t54 8.5q46 0 66 -20t20 -57v-116q0 -9 2 -16t5 -12v-6h-51zM140 248 q-28 0 -43.5 -9t-15.5 -26q0 -14 9 -20.5t25 -6.5q20 0 35.5 12t15.5 36v14h-26zM32 118h192v-44h-192v44z" />
<glyph unicode="&#xab;" horiz-adv-x="352" d="M320 67v-70h-2l-155 108v44l155 110h2v-70l-91 -59v-4zM175 67v-70h-2l-155 108v44l155 110h2v-70l-91 -59v-4z" />
<glyph unicode="&#xac;" horiz-adv-x="352" d="M24 202h289v-151h-59v91h-230v60z" />
<glyph unicode="&#xad;" horiz-adv-x="208" d="M30 196h148v-67h-148v67z" />
<glyph unicode="&#xae;" horiz-adv-x="400" d="M181 167h-18v-95h-43v224h90q34 0 52.5 -16t18.5 -45q0 -25 -14 -42.5t-40 -21.5v-3l70 -93v-3h-48zM163 261v-63h34q18 0 28 9t10 25t-11 22.5t-27 6.5h-34zM40 184q0 -65 44 -112.5t116 -47.5q66 0 113 43.5t47 116.5q0 74 -51 117t-109 43q-61 0 -110.5 -43 t-49.5 -117zM15 184q0 82 56.5 133.5t128.5 51.5q74 0 129.5 -51.5t55.5 -133.5q0 -88 -55.5 -136.5t-129.5 -48.5q-72 0 -128.5 49t-56.5 136z" />
<glyph unicode="&#xaf;" horiz-adv-x="256" d="M38 342h180v-61h-180v61z" />
<glyph unicode="&#xb0;" horiz-adv-x="208" d="M29 296q0 31 22 53t53 22t53 -22t22 -53t-22 -53t-53 -22t-53 22t-22 53zM73 296q0 -13 9 -22t22 -9t22 9t9 22t-9 22t-22 9t-22 -9t-9 -22z" />
<glyph unicode="&#xb1;" horiz-adv-x="352" d="M31 216h114v106h59v-106h116v-60h-116v-98h-59v98h-114v60zM31 42h289v-61h-289v61z" />
<glyph unicode="&#xb2;" horiz-adv-x="208" d="M18 158v36l77 71q7 6 16 17t9 23q0 10 -6.5 15t-17.5 5t-17.5 -5.5t-12.5 -18.5l-42 25v6q6 14 28 27.5t52 13.5h4q30 0 51 -17q22 -17 22 -45q0 -26 -16 -46t-39 -36l-30 -24h92v-47h-170z" />
<glyph unicode="&#xb3;" horiz-adv-x="208" d="M31 341q8 12 28 22t48 10q34 0 54 -15.5t20 -38.5q0 -20 -9.5 -30.5t-24.5 -13.5v-3q20 -5 30.5 -19t10.5 -33q0 -26 -21.5 -46t-57.5 -20q-35 0 -56 11.5t-31 32.5v4l40 19q7 -12 17.5 -18t25.5 -6t23.5 7t8.5 20q0 11 -9 18t-28 7h-34v41h32q14 0 21 5.5t7 14.5 t-6 13.5t-17 4.5q-10 0 -20.5 -4t-15.5 -10l-36 22v5z" />
<glyph unicode="&#xb4;" horiz-adv-x="256" d="M128 368h68v-7l-51 -73h-67v6z" />
<glyph unicode="&#xb5;" d="M32 -112v362h68v-161q0 -24 10.5 -34t31.5 -10q22 0 36 14.5t14 43.5v147h68v-250h-65v32h-3q-8 -17 -25.5 -27.5t-50.5 -10.5q-9 0 -19 3v-109h-65z" />
<glyph unicode="&#xb6;" horiz-adv-x="320" d="M214 328h-36v-360h-44v204q-43 1 -74.5 28t-31.5 72q0 43 29 69.5t70 26.5h181v-40h-50v-360h-44v360z" />
<glyph unicode="&#xb7;" horiz-adv-x="160" d="M131 186q0 -18 -13.5 -36.5t-37.5 -18.5q-21 0 -36.5 18t-15.5 37q0 18 15.5 36t36.5 18q24 0 37.5 -18t13.5 -36z" />
<glyph unicode="&#xb8;" horiz-adv-x="256" d="M95 -72h6q2 -1 7.5 -2t13.5 -1q9 0 15.5 3.5t7.5 10.5q1 6 -3 10t-13 4h-29l11 51h36l-4 -21l13 1h3q17 0 29 -11q11 -10 11 -28v-5q-3 -30 -25 -41.5t-46 -11.5q-18 0 -28.5 1.5t-15.5 3.5z" />
<glyph unicode="&#xb9;" horiz-adv-x="176" d="M78 289l-34 -41l-33 27v11l87 88h35v-214h-55v129z" />
<glyph unicode="&#xba;" horiz-adv-x="256" d="M128 142q-43 0 -71.5 30t-28.5 85q0 53 28.5 83t71.5 30t71.5 -30t28.5 -83q0 -55 -28.5 -85t-71.5 -30zM127 192q21 0 31.5 18t10.5 47q0 26 -11 44.5t-31 18.5t-31 -18.5t-11 -44.5q0 -29 10.5 -47t31.5 -18zM30 118h195v-44h-195v44z" />
<glyph unicode="&#xbb;" horiz-adv-x="352" d="M123 126v4l-91 59v70h2l155 -108v-44l-155 -110h-2v70zM268 126v4l-91 59v70h2l155 -108v-44l-155 -110h-2v70z" />
<glyph unicode="&#xbc;" horiz-adv-x="464" d="M78 289l-34 -41l-33 27v11l87 88h35v-214h-55v129zM113 -13l-39 29l278 367l38 -28zM402 88h30v-43h-30v-45h-50v45h-110v36l124 135h36v-128zM309 88h43v47l-43 -46v-1z" />
<glyph unicode="&#xbd;" horiz-adv-x="464" d="M78 289l-34 -41l-33 27v11l87 88h35v-214h-55v129zM104 -13l-39 29l278 367l38 -28zM274 0v36l77 71q7 6 16 17t9 23q0 10 -6.5 15t-17.5 5t-17.5 -5.5t-12.5 -18.5l-42 25v6q6 14 28 27.5t52 13.5h4q30 0 51 -17q22 -17 22 -45q0 -26 -16 -46t-39 -36l-30 -24h92v-47 h-170z" />
<glyph unicode="&#xbe;" horiz-adv-x="464" d="M120 -13l-39 29l278 367l38 -28zM403 88h30v-43h-30v-45h-50v45h-110v36l124 135h36v-128zM310 88h43v47l-43 -46v-1zM29 341q8 12 28 22t48 10q34 0 54 -15.5t20 -38.5q0 -20 -9.5 -30.5t-24.5 -13.5v-3q20 -5 30.5 -19t10.5 -33q0 -26 -21.5 -46t-57.5 -20 q-35 0 -56 11.5t-31 32.5v4l40 19q7 -12 17.5 -18t25.5 -6t23.5 7t8.5 20q0 11 -9 18t-28 7h-34v41h32q14 0 21 5.5t7 14.5t-6 13.5t-17 4.5q-10 0 -20.5 -4t-15.5 -10l-36 22v5z" />
<glyph unicode="&#xbf;" horiz-adv-x="272" d="M111 -13q0 -17 11.5 -26.5t35.5 -9.5q23 0 38.5 8t22.5 18h5l33 -54q-14 -15 -40 -25t-70 -10q-52 0 -81.5 26.5t-29.5 66.5q0 27 12 46t27 35q17 18 28 33.5t11 34.5v17h74v-19q0 -29 -11.5 -47t-30.5 -36q-14 -13 -24.5 -27.5t-10.5 -30.5zM105 216q0 15 12.5 31 t32.5 16q19 0 32.5 -16t13.5 -31t-13.5 -30.5t-32.5 -15.5q-20 0 -32.5 16t-12.5 30z" />
<glyph unicode="&#xc0;" horiz-adv-x="368" d="M259 86h-151l-36 -86h-76l159 368h59l158 -368h-76zM128 143h109l-52 126h-3zM232 406v-6h-79l-59 41v7h89z" />
<glyph unicode="&#xc1;" horiz-adv-x="368" d="M259 86h-151l-36 -86h-76l159 368h59l158 -368h-76zM128 143h109l-52 126h-3zM175 448h89v-7l-59 -41h-79v6z" />
<glyph unicode="&#xc2;" horiz-adv-x="368" d="M259 86h-151l-36 -86h-76l159 368h59l158 -368h-76zM128 143h109l-52 126h-3zM149 452h68l66 -46v-6h-71l-29 22l-30 -22h-70v6z" />
<glyph unicode="&#xc3;" horiz-adv-x="368" d="M259 86h-151l-36 -86h-76l159 368h59l158 -368h-76zM128 143h109l-52 126h-3zM148 416q-9 0 -19 -4.5t-17 -12.5l-34 33q13 13 30.5 24.5t37.5 11.5q18 0 41.5 -8t35.5 -8t20.5 5.5t16.5 11.5l28 -35q-13 -15 -29 -24.5t-37 -9.5q-17 0 -39 8t-35 8z" />
<glyph unicode="&#xc4;" horiz-adv-x="368" d="M259 86h-151l-36 -86h-76l159 368h59l158 -368h-76zM128 143h109l-52 126h-3zM162 433q0 -13 -11 -27t-31 -14q-19 0 -31.5 13.5t-12.5 27.5q0 12 12.5 25.5t31.5 13.5q20 0 31 -13.5t11 -25.5zM292 433q0 -13 -11 -27t-32 -14q-19 0 -31 13.5t-12 27.5q0 12 12 25.5 t31 13.5q21 0 32 -13.5t11 -25.5z" />
<glyph unicode="&#xc5;" horiz-adv-x="368" d="M259 86h-151l-36 -86h-76l159 368h59l158 -368h-76zM128 143h109l-52 126h-3zM129 397q0 23 16 39.5t39 16.5t39.5 -16.5t16.5 -39.5t-16.5 -39t-39.5 -16t-39 16t-16 39zM166 397q0 -7 5.5 -12.5t12.5 -5.5q8 0 13.5 5.5t5.5 12.5q0 8 -5.5 13.5t-13.5 5.5 q-7 0 -12.5 -5.5t-5.5 -13.5z" />
<glyph unicode="&#xc6;" horiz-adv-x="496" d="M240 368h237v-63h-164v-90h129v-62h-129v-92h173v-61h-246v81h-108l-51 -81h-81zM170 143h70v109h-3z" />
<glyph unicode="&#xc7;" horiz-adv-x="336" d="M333 25q-26 -17 -56.5 -25t-63.5 -8q-84 0 -137.5 55t-53.5 137q0 86 57 139t139 53q29 0 59.5 -6.5t57.5 -26.5l-33 -64h-4q-15 13 -35 21.5t-45 8.5q-60 0 -89 -35t-29 -90q0 -56 32.5 -91t85.5 -35q23 0 45.5 8.5t37.5 19.5h3zM164 -72h6q2 -1 7.5 -2t13.5 -1 q9 0 15.5 3.5t7.5 10.5q1 6 -3 10t-13 4h-29l11 51h36l-4 -21l13 1h3q17 0 29 -11q11 -10 11 -28v-5q-3 -30 -25 -41.5t-46 -11.5q-18 0 -28.5 1.5t-15.5 3.5z" />
<glyph unicode="&#xc8;" horiz-adv-x="304" d="M48 368h237v-63h-164v-90h129v-62h-129v-92h173v-61h-246v368zM235 406v-6h-79l-59 41v7h89z" />
<glyph unicode="&#xc9;" horiz-adv-x="304" d="M48 368h237v-63h-164v-90h129v-62h-129v-92h173v-61h-246v368zM153 448h89v-7l-59 -41h-79v6z" />
<glyph unicode="&#xca;" horiz-adv-x="304" d="M48 368h237v-63h-164v-90h129v-62h-129v-92h173v-61h-246v368zM136 452h68l66 -46v-6h-71l-29 22l-30 -22h-70v6z" />
<glyph unicode="&#xcb;" horiz-adv-x="304" d="M48 368h237v-63h-164v-90h129v-62h-129v-92h173v-61h-246v368zM144 433q0 -13 -11 -27t-31 -14q-19 0 -31.5 13.5t-12.5 27.5q0 12 12.5 25.5t31.5 13.5q20 0 31 -13.5t11 -25.5zM274 433q0 -13 -11 -27t-32 -14q-19 0 -31 13.5t-12 27.5q0 12 12 25.5t31 13.5 q21 0 32 -13.5t11 -25.5z" />
<glyph unicode="&#xcc;" horiz-adv-x="176" d="M48 368h73v-368h-73v368zM131 406v-6h-79l-59 41v7h89z" />
<glyph unicode="&#xcd;" horiz-adv-x="176" d="M48 368h73v-368h-73v368zM82 448h89v-7l-59 -41h-79v6z" />
<glyph unicode="&#xce;" horiz-adv-x="176" d="M48 368h73v-368h-73v368zM53 452h68l66 -46v-6h-71l-29 22l-30 -22h-70v6z" />
<glyph unicode="&#xcf;" horiz-adv-x="176" d="M48 368h73v-368h-73v368zM65 433q0 -13 -11 -27t-31 -14q-19 0 -31.5 13.5t-12.5 27.5q0 12 12.5 25.5t31.5 13.5q20 0 31 -13.5t11 -25.5zM195 433q0 -13 -11 -27t-32 -14q-19 0 -31 13.5t-12 27.5q0 12 12 25.5t31 13.5q21 0 32 -13.5t11 -25.5z" />
<glyph unicode="&#xd0;" horiz-adv-x="400" d="M48 368h132q94 0 143 -46.5t49 -137.5q0 -87 -53 -135.5t-139 -48.5h-132v368zM121 61h46q66 0 95 30t29 93q0 59 -29 91t-95 32h-46v-246zM12 212h158v-63h-158v63z" />
<glyph unicode="&#xd1;" horiz-adv-x="400" d="M48 0v368h59l173 -234h4v234h68v-368h-55l-178 236h-3v-236h-68zM168 412q-9 0 -19 -4.5t-17 -12.5l-34 33q13 13 30.5 24.5t37.5 11.5q18 0 41.5 -8t35.5 -8t20.5 5.5t16.5 11.5l28 -35q-13 -15 -29 -24.5t-37 -9.5q-17 0 -39 8t-35 8z" />
<glyph unicode="&#xd2;" horiz-adv-x="432" d="M22 184q0 81 56.5 136.5t137.5 55.5q83 0 138.5 -55.5t55.5 -136.5t-56.5 -136.5t-137.5 -55.5q-82 0 -138 55.5t-56 136.5zM334 184q0 52 -32 88.5t-86 36.5t-86 -36.5t-32 -88.5t32 -88.5t86 -36.5t86 36.5t32 88.5zM265 406v-6h-79l-59 41v7h89z" />
<glyph unicode="&#xd3;" horiz-adv-x="432" d="M22 184q0 81 56.5 136.5t137.5 55.5q83 0 138.5 -55.5t55.5 -136.5t-56.5 -136.5t-137.5 -55.5q-82 0 -138 55.5t-56 136.5zM334 184q0 52 -32 88.5t-86 36.5t-86 -36.5t-32 -88.5t32 -88.5t86 -36.5t86 36.5t32 88.5zM210 448h89v-7l-59 -41h-79v6z" />
<glyph unicode="&#xd4;" horiz-adv-x="432" d="M22 184q0 81 56.5 136.5t137.5 55.5q83 0 138.5 -55.5t55.5 -136.5t-56.5 -136.5t-137.5 -55.5q-82 0 -138 55.5t-56 136.5zM334 184q0 52 -32 88.5t-86 36.5t-86 -36.5t-32 -88.5t32 -88.5t86 -36.5t86 36.5t32 88.5zM182 452h68l66 -46v-6h-71l-29 22l-30 -22h-70v6z " />
<glyph unicode="&#xd5;" horiz-adv-x="432" d="M22 184q0 81 56.5 136.5t137.5 55.5q83 0 138.5 -55.5t55.5 -136.5t-56.5 -136.5t-137.5 -55.5q-82 0 -138 55.5t-56 136.5zM334 184q0 52 -32 88.5t-86 36.5t-86 -36.5t-32 -88.5t32 -88.5t86 -36.5t86 36.5t32 88.5zM185 416q-9 0 -19 -4.5t-17 -12.5l-34 33 q13 13 30.5 24.5t37.5 11.5q18 0 41.5 -8t35.5 -8t20.5 5.5t16.5 11.5l28 -35q-13 -15 -29 -24.5t-37 -9.5q-17 0 -39 8t-35 8z" />
<glyph unicode="&#xd6;" horiz-adv-x="432" d="M22 184q0 81 56.5 136.5t137.5 55.5q83 0 138.5 -55.5t55.5 -136.5t-56.5 -136.5t-137.5 -55.5q-82 0 -138 55.5t-56 136.5zM334 184q0 52 -32 88.5t-86 36.5t-86 -36.5t-32 -88.5t32 -88.5t86 -36.5t86 36.5t32 88.5zM194 433q0 -13 -11 -27t-31 -14q-19 0 -31.5 13.5 t-12.5 27.5q0 12 12.5 25.5t31.5 13.5q20 0 31 -13.5t11 -25.5zM324 433q0 -13 -11 -27t-32 -14q-19 0 -31 13.5t-12 27.5q0 12 12 25.5t31 13.5q21 0 32 -13.5t11 -25.5z" />
<glyph unicode="&#xd7;" horiz-adv-x="352" d="M90 26l-42 42l86 86l-86 86l42 42l86 -86l86 86l42 -42l-86 -86l86 -86l-42 -42l-86 86z" />
<glyph unicode="&#xd8;" horiz-adv-x="432" d="M22 184q0 81 56.5 136.5t137.5 55.5q83 0 138.5 -55.5t55.5 -136.5t-56.5 -136.5t-137.5 -55.5q-82 0 -138 55.5t-56 136.5zM336 184q0 54 -32.5 92t-87.5 38t-87.5 -38t-32.5 -92t32.5 -91.5t87.5 -37.5t87.5 37.5t32.5 91.5zM98 -29l-46 31l271 380l45 -29z" />
<glyph unicode="&#xd9;" horiz-adv-x="352" d="M327 141q0 -74 -39 -111.5t-112 -37.5q-76 0 -113.5 39t-37.5 110v227h71v-235q0 -34 18.5 -58.5t61.5 -24.5q40 0 60 19t20 64v235h71v-227zM232 406v-6h-79l-59 41v7h89z" />
<glyph unicode="&#xda;" horiz-adv-x="352" d="M327 141q0 -74 -39 -111.5t-112 -37.5q-76 0 -113.5 39t-37.5 110v227h71v-235q0 -34 18.5 -58.5t61.5 -24.5q40 0 60 19t20 64v235h71v-227zM167 448h89v-7l-59 -41h-79v6z" />
<glyph unicode="&#xdb;" horiz-adv-x="352" d="M327 141q0 -74 -39 -111.5t-112 -37.5q-76 0 -113.5 39t-37.5 110v227h71v-235q0 -34 18.5 -58.5t61.5 -24.5q40 0 60 19t20 64v235h71v-227zM142 452h68l66 -46v-6h-71l-29 22l-30 -22h-70v6z" />
<glyph unicode="&#xdc;" horiz-adv-x="352" d="M327 141q0 -74 -39 -111.5t-112 -37.5q-76 0 -113.5 39t-37.5 110v227h71v-235q0 -34 18.5 -58.5t61.5 -24.5q40 0 60 19t20 64v235h71v-227zM154 433q0 -13 -11 -27t-31 -14q-19 0 -31.5 13.5t-12.5 27.5q0 12 12.5 25.5t31.5 13.5q20 0 31 -13.5t11 -25.5zM284 433 q0 -13 -11 -27t-32 -14q-19 0 -31 13.5t-12 27.5q0 12 12 25.5t31 13.5q21 0 32 -13.5t11 -25.5z" />
<glyph unicode="&#xdd;" horiz-adv-x="336" d="M199 0h-73v169l-131 196v3h79l88 -131h3l90 131h76v-3l-132 -196v-169zM161 448h89v-7l-59 -41h-79v6z" />
<glyph unicode="&#xde;" horiz-adv-x="320" d="M121 0h-73v368h73v-60h70q50 0 81.5 -33.5t31.5 -85.5q0 -54 -31.5 -86t-82.5 -32h-69v-71zM121 246v-116h56q55 0 55 60q0 30 -14.5 43t-35.5 13h-61z" />
<glyph unicode="&#xdf;" horiz-adv-x="368" d="M48 290q0 48 31 75.5t80 27.5q51 0 82.5 -25t31.5 -61q0 -28 -10 -44t-20 -26q-12 -12 -20.5 -22.5t-8.5 -22.5t13.5 -18t46.5 -19q41 -16 59 -33t18 -49q0 -36 -26.5 -56t-68.5 -20q-38 0 -64.5 6.5t-50.5 22.5l23 51h3q16 -16 38.5 -22.5t42.5 -6.5q19 0 27.5 7t8.5 17 q0 13 -16 19l-38 14q-36 13 -58.5 29t-22.5 52q0 20 8.5 33t19.5 24q16 18 24.5 30t8.5 28q0 17 -13 26t-36 9t-35 -13.5t-12 -36.5v-286h-66v290z" />
<glyph unicode="&#xe0;" d="M198 0q-1 6 -2.5 13.5t-2.5 14.5h-3q-10 -15 -28.5 -23.5t-51.5 -8.5q-42 0 -64.5 20.5t-22.5 58.5q0 36 31.5 60.5t97.5 24.5h40v9q0 16 -9 25t-40 9q-26 0 -50 -7t-33 -16h-5l-16 50q11 8 42.5 17t66.5 9q48 0 78 -21.5t30 -63.5v-134q0 -5 2.5 -16t5.5 -16v-5h-66z M160 114q-37 0 -54 -9.5t-17 -27.5q0 -14 11 -23t31 -9q28 0 44.5 13.5t16.5 43.5v12h-32zM192 294v-6h-68l-50 73v7h68z" />
<glyph unicode="&#xe1;" d="M198 0q-1 6 -2.5 13.5t-2.5 14.5h-3q-10 -15 -28.5 -23.5t-51.5 -8.5q-42 0 -64.5 20.5t-22.5 58.5q0 36 31.5 60.5t97.5 24.5h40v9q0 16 -9 25t-40 9q-26 0 -50 -7t-33 -16h-5l-16 50q11 8 42.5 17t66.5 9q48 0 78 -21.5t30 -63.5v-134q0 -5 2.5 -16t5.5 -16v-5h-66z M160 114q-37 0 -54 -9.5t-17 -27.5q0 -14 11 -23t31 -9q28 0 44.5 13.5t16.5 43.5v12h-32zM146 368h68v-7l-51 -73h-67v6z" />
<glyph unicode="&#xe2;" d="M198 0q-1 6 -2.5 13.5t-2.5 14.5h-3q-10 -15 -28.5 -23.5t-51.5 -8.5q-42 0 -64.5 20.5t-22.5 58.5q0 36 31.5 60.5t97.5 24.5h40v9q0 16 -9 25t-40 9q-26 0 -50 -7t-33 -16h-5l-16 50q11 8 42.5 17t66.5 9q48 0 78 -21.5t30 -63.5v-134q0 -5 2.5 -16t5.5 -16v-5h-66z M160 114q-37 0 -54 -9.5t-17 -27.5q0 -14 11 -23t31 -9q28 0 44.5 13.5t16.5 43.5v12h-32zM127 368h38l76 -84v-6h-56l-39 39l-40 -39h-55v6z" />
<glyph unicode="&#xe3;" d="M198 0q-1 6 -2.5 13.5t-2.5 14.5h-3q-10 -15 -28.5 -23.5t-51.5 -8.5q-42 0 -64.5 20.5t-22.5 58.5q0 36 31.5 60.5t97.5 24.5h40v9q0 16 -9 25t-40 9q-26 0 -50 -7t-33 -16h-5l-16 50q11 8 42.5 17t66.5 9q48 0 78 -21.5t30 -63.5v-134q0 -5 2.5 -16t5.5 -16v-5h-66z M160 114q-37 0 -54 -9.5t-17 -27.5q0 -14 11 -23t31 -9q28 0 44.5 13.5t16.5 43.5v12h-32zM108 298q-10 0 -20 -8t-16 -19l-34 27q10 21 28 38t40 17q21 0 44 -12.5t37 -12.5q15 0 23.5 8t14.5 16l31 -31q-13 -21 -31.5 -35t-38.5 -14q-18 0 -41.5 13t-36.5 13z" />
<glyph unicode="&#xe4;" d="M198 0q-1 6 -2.5 13.5t-2.5 14.5h-3q-10 -15 -28.5 -23.5t-51.5 -8.5q-42 0 -64.5 20.5t-22.5 58.5q0 36 31.5 60.5t97.5 24.5h40v9q0 16 -9 25t-40 9q-26 0 -50 -7t-33 -16h-5l-16 50q11 8 42.5 17t66.5 9q48 0 78 -21.5t30 -63.5v-134q0 -5 2.5 -16t5.5 -16v-5h-66z M160 114q-37 0 -54 -9.5t-17 -27.5q0 -14 11 -23t31 -9q28 0 44.5 13.5t16.5 43.5v12h-32zM127 328q0 -12 -11 -27t-30 -15q-17 0 -29.5 14t-12.5 28q0 12 12.5 27t29.5 15q19 0 30 -15t11 -27zM248 328q0 -12 -11 -27t-30 -15q-18 0 -30 14t-12 28q0 12 12 27t30 15 q19 0 30 -15t11 -27z" />
<glyph unicode="&#xe5;" d="M198 0q-1 6 -2.5 13.5t-2.5 14.5h-3q-10 -15 -28.5 -23.5t-51.5 -8.5q-42 0 -64.5 20.5t-22.5 58.5q0 36 31.5 60.5t97.5 24.5h40v9q0 16 -9 25t-40 9q-26 0 -50 -7t-33 -16h-5l-16 50q11 8 42.5 17t66.5 9q48 0 78 -21.5t30 -63.5v-134q0 -5 2.5 -16t5.5 -16v-5h-66z M160 114q-37 0 -54 -9.5t-17 -27.5q0 -14 11 -23t31 -9q28 0 44.5 13.5t16.5 43.5v12h-32zM91 325q0 23 16 39.5t39 16.5t39.5 -16.5t16.5 -39.5t-16.5 -39t-39.5 -16t-39 16t-16 39zM128 325q0 -7 5.5 -12.5t12.5 -5.5q8 0 13.5 5.5t5.5 12.5q0 8 -5.5 13.5t-13.5 5.5 q-7 0 -12.5 -5.5t-5.5 -13.5z" />
<glyph unicode="&#xe6;" horiz-adv-x="448" d="M232 217q12 17 34.5 28t55.5 11q51 0 81 -37t29 -94v-24h-176q4 -25 21.5 -40t50.5 -15q23 0 38.5 7.5t28.5 21.5h3l25 -48q-40 -32 -98 -32q-39 0 -65 13.5t-40 35.5h-3q-17 -24 -40.5 -36t-62.5 -12q-45 0 -68 20.5t-23 58.5q0 37 33 61t96 24h40v8q0 16 -12 25.5 t-40 9.5q-27 0 -48.5 -8t-31.5 -15h-5l-16 50q11 8 40.5 17t66.5 9q36 0 56 -11t30 -28zM160 114q-39 0 -55.5 -10t-16.5 -27q0 -14 10.5 -23t32.5 -9q28 0 44.5 13.5t16.5 43.5v12h-32zM374 146q-3 28 -16.5 43.5t-40.5 15.5t-43 -17.5t-18 -41.5h118z" />
<glyph unicode="&#xe7;" horiz-adv-x="240" d="M22 127q0 60 35 94.5t96 34.5q24 0 46.5 -7.5t42.5 -24.5l-28 -53h-2q-15 19 -30.5 25t-29.5 6q-26 0 -43 -19.5t-17 -55.5q0 -42 17 -59t44 -17q18 0 34 5.5t28 17.5h1l24 -49q-17 -14 -39 -22t-49 -8q-60 0 -95 35.5t-35 96.5zM107 -72h6q2 -1 7.5 -2t13.5 -1 q9 0 15.5 3.5t7.5 10.5q1 6 -3 10t-13 4h-29l11 51h36l-4 -21l13 1h3q17 0 29 -11q11 -10 11 -28v-5q-3 -30 -25 -41.5t-46 -11.5q-18 0 -28.5 1.5t-15.5 3.5z" />
<glyph unicode="&#xe8;" d="M87 101q4 -25 22.5 -40t48.5 -15q27 0 43 7t32 22h3l26 -48q-20 -16 -45.5 -24t-64.5 -8q-58 0 -94 35t-36 95q0 55 36 93t94 38q57 0 88.5 -37t31.5 -94v-24h-185zM211 146q-2 25 -15.5 42t-43.5 17q-28 0 -45.5 -17.5t-19.5 -41.5h124zM199 294v-6h-68l-50 73v7h68z " />
<glyph unicode="&#xe9;" d="M87 101q4 -25 22.5 -40t48.5 -15q27 0 43 7t32 22h3l26 -48q-20 -16 -45.5 -24t-64.5 -8q-58 0 -94 35t-36 95q0 55 36 93t94 38q57 0 88.5 -37t31.5 -94v-24h-185zM211 146q-2 25 -15.5 42t-43.5 17q-28 0 -45.5 -17.5t-19.5 -41.5h124zM150 368h68v-7l-51 -73h-67v6z " />
<glyph unicode="&#xea;" d="M87 101q4 -25 22.5 -40t48.5 -15q27 0 43 7t32 22h3l26 -48q-20 -16 -45.5 -24t-64.5 -8q-58 0 -94 35t-36 95q0 55 36 93t94 38q57 0 88.5 -37t31.5 -94v-24h-185zM211 146q-2 25 -15.5 42t-43.5 17q-28 0 -45.5 -17.5t-19.5 -41.5h124zM134 368h38l76 -84v-6h-56 l-39 39l-40 -39h-55v6z" />
<glyph unicode="&#xeb;" d="M87 101q4 -25 22.5 -40t48.5 -15q27 0 43 7t32 22h3l26 -48q-20 -16 -45.5 -24t-64.5 -8q-58 0 -94 35t-36 95q0 55 36 93t94 38q57 0 88.5 -37t31.5 -94v-24h-185zM211 146q-2 25 -15.5 42t-43.5 17q-28 0 -45.5 -17.5t-19.5 -41.5h124zM133 328q0 -12 -11 -27t-30 -15 q-17 0 -29.5 14t-12.5 28q0 12 12.5 27t29.5 15q19 0 30 -15t11 -27zM254 328q0 -12 -11 -27t-30 -15q-18 0 -30 14t-12 28q0 12 12 27t30 15q19 0 30 -15t11 -27z" />
<glyph unicode="&#xec;" horiz-adv-x="128" d="M30 0v250h68v-250h-68zM115 294v-6h-68l-50 73v7h68z" />
<glyph unicode="&#xed;" horiz-adv-x="128" d="M30 0v250h68v-250h-68zM63 368h68v-7l-51 -73h-67v6z" />
<glyph unicode="&#xee;" horiz-adv-x="128" d="M30 0v250h68v-250h-68zM42 368h48l50 -74v-6h-48l-26 36l-27 -36h-47v6z" />
<glyph unicode="&#xef;" horiz-adv-x="128" d="M30 0v250h68v-250h-68zM57 328q0 -12 -11 -28t-28 -16q-18 0 -30 15.5t-12 28.5q0 12 12 28t30 16q17 0 28 -16t11 -28zM157 328q0 -12 -10.5 -28t-28.5 -16q-17 0 -29 15.5t-12 28.5q0 12 12 28t29 16q18 0 28.5 -16t10.5 -28z" />
<glyph unicode="&#xf0;" horiz-adv-x="304" d="M143 368q66 -63 101.5 -123.5t35.5 -126.5q0 -53 -33.5 -88t-94.5 -35q-62 0 -95.5 33t-33.5 84q0 57 34.5 87.5t80.5 30.5q17 0 29 -3.5t22 -13.5l3 3q-12 28 -46.5 66t-79.5 79v7h77zM151 49q30 0 45 18.5t15 44.5q0 30 -15.5 48t-44.5 18q-28 0 -44.5 -19.5 t-16.5 -46.5q0 -28 17 -45.5t44 -17.5zM97 244l-28 39l138 98l28 -40z" />
<glyph unicode="&#xf1;" d="M100 214q8 18 25.5 30t45.5 12q42 0 65.5 -25t23.5 -69v-162h-68v156q0 23 -9.5 34.5t-29.5 11.5q-26 0 -39.5 -16t-13.5 -49v-137h-68v250h65v-36h3zM110 303q-10 0 -20 -8t-16 -19l-34 27q10 21 28 38t40 17q21 0 44 -12.5t37 -12.5q15 0 23.5 8t14.5 16l31 -31 q-13 -21 -31.5 -35t-38.5 -14q-18 0 -41.5 13t-36.5 13z" />
<glyph unicode="&#xf2;" horiz-adv-x="304" d="M152 -5q-54 0 -92 35t-38 95q0 62 37.5 96.5t92.5 34.5t92.5 -34.5t37.5 -96.5q0 -60 -36.5 -95t-93.5 -35zM152 49q32 0 45.5 20t13.5 56q0 34 -13.5 55.5t-45.5 21.5t-46.5 -21.5t-14.5 -55.5q0 -35 14.5 -55.5t46.5 -20.5zM201 294v-6h-68l-50 73v7h68z" />
<glyph unicode="&#xf3;" horiz-adv-x="304" d="M152 -5q-54 0 -92 35t-38 95q0 62 37.5 96.5t92.5 34.5t92.5 -34.5t37.5 -96.5q0 -60 -36.5 -95t-93.5 -35zM152 49q32 0 45.5 20t13.5 56q0 34 -13.5 55.5t-45.5 21.5t-46.5 -21.5t-14.5 -55.5q0 -35 14.5 -55.5t46.5 -20.5zM151 368h68v-7l-51 -73h-67v6z" />
<glyph unicode="&#xf4;" horiz-adv-x="304" d="M152 -5q-54 0 -92 35t-38 95q0 62 37.5 96.5t92.5 34.5t92.5 -34.5t37.5 -96.5q0 -60 -36.5 -95t-93.5 -35zM152 49q32 0 45.5 20t13.5 56q0 34 -13.5 55.5t-45.5 21.5t-46.5 -21.5t-14.5 -55.5q0 -35 14.5 -55.5t46.5 -20.5zM133 368h38l76 -84v-6h-56l-39 39l-40 -39 h-55v6z" />
<glyph unicode="&#xf5;" horiz-adv-x="304" d="M152 -5q-54 0 -92 35t-38 95q0 62 37.5 96.5t92.5 34.5t92.5 -34.5t37.5 -96.5q0 -60 -36.5 -95t-93.5 -35zM152 49q32 0 45.5 20t13.5 56q0 34 -13.5 55.5t-45.5 21.5t-46.5 -21.5t-14.5 -55.5q0 -35 14.5 -55.5t46.5 -20.5zM114 298q-10 0 -20 -8t-16 -19l-34 27 q10 21 28 38t40 17q21 0 44 -12.5t37 -12.5q15 0 23.5 8t14.5 16l31 -31q-13 -21 -31.5 -35t-38.5 -14q-18 0 -41.5 13t-36.5 13z" />
<glyph unicode="&#xf6;" horiz-adv-x="304" d="M152 -5q-54 0 -92 35t-38 95q0 62 37.5 96.5t92.5 34.5t92.5 -34.5t37.5 -96.5q0 -60 -36.5 -95t-93.5 -35zM152 49q32 0 45.5 20t13.5 56q0 34 -13.5 55.5t-45.5 21.5t-46.5 -21.5t-14.5 -55.5q0 -35 14.5 -55.5t46.5 -20.5zM133 328q0 -12 -11 -27t-30 -15 q-17 0 -29.5 14t-12.5 28q0 12 12.5 27t29.5 15q19 0 30 -15t11 -27zM254 328q0 -12 -11 -27t-30 -15q-18 0 -30 14t-12 28q0 12 12 27t30 15q19 0 30 -15t11 -27z" />
<glyph unicode="&#xf7;" horiz-adv-x="352" d="M219 52q0 -15 -11 -30t-31 -15q-19 0 -31.5 15t-12.5 30q0 16 12.5 31t31.5 15q20 0 31 -15t11 -31zM219 268q0 -16 -11 -31t-31 -15q-19 0 -31.5 15t-12.5 31q0 15 12.5 30t31.5 15q20 0 31 -15t11 -30zM31 191h289v-60h-289v60z" />
<glyph unicode="&#xf8;" horiz-adv-x="304" d="M152 -5q-54 0 -92 35t-38 95q0 62 37.5 96.5t92.5 34.5t92.5 -34.5t37.5 -96.5q0 -60 -36.5 -95t-93.5 -35zM152 45q34 0 48.5 21t14.5 59q0 36 -14.5 58.5t-48.5 22.5t-49.5 -22.5t-15.5 -58.5q0 -37 15.5 -58.5t49.5 -21.5zM66 -33l-35 26l201 284l34 -24z" />
<glyph unicode="&#xf9;" d="M192 32q-8 -17 -25.5 -27.5t-50.5 -10.5q-40 0 -62 24.5t-22 59.5v172h68v-161q0 -24 10.5 -34t31.5 -10q22 0 36 14.5t14 43.5v147h68v-250h-65v32h-3zM200 294v-6h-68l-50 73v7h68z" />
<glyph unicode="&#xfa;" d="M192 32q-8 -17 -25.5 -27.5t-50.5 -10.5q-40 0 -62 24.5t-22 59.5v172h68v-161q0 -24 10.5 -34t31.5 -10q22 0 36 14.5t14 43.5v147h68v-250h-65v32h-3zM145 368h68v-7l-51 -73h-67v6z" />
<glyph unicode="&#xfb;" d="M192 32q-8 -17 -25.5 -27.5t-50.5 -10.5q-40 0 -62 24.5t-22 59.5v172h68v-161q0 -24 10.5 -34t31.5 -10q22 0 36 14.5t14 43.5v147h68v-250h-65v32h-3zM125 368h38l76 -84v-6h-56l-39 39l-40 -39h-55v6z" />
<glyph unicode="&#xfc;" d="M192 32q-8 -17 -25.5 -27.5t-50.5 -10.5q-40 0 -62 24.5t-22 59.5v172h68v-161q0 -24 10.5 -34t31.5 -10q22 0 36 14.5t14 43.5v147h68v-250h-65v32h-3zM125 328q0 -12 -11 -27t-30 -15q-17 0 -29.5 14t-12.5 28q0 12 12.5 27t29.5 15q19 0 30 -15t11 -27zM246 328 q0 -12 -11 -27t-30 -15q-18 0 -30 14t-12 28q0 12 12 27t30 15q19 0 30 -15t11 -27z" />
<glyph unicode="&#xfd;" horiz-adv-x="256" d="M142 -31q-17 -43 -39 -61.5t-56 -18.5q-14 0 -29.5 3t-23.5 9l13 49h4q8 -4 16 -5t16 -1q16 0 25.5 12t20.5 38l9 22l-97 232v2h68l59 -155h3l56 155h68v-2zM128 368h68v-7l-51 -73h-67v6z" />
<glyph unicode="&#xfe;" horiz-adv-x="320" d="M176 -5q-27 0 -46.5 6.5t-27.5 20.5h-4v-134h-66v496h65v-170h3q8 18 28 30t49 12q56 0 87.5 -37t31.5 -94q0 -56 -33.5 -93t-86.5 -37zM97 125q0 -40 17 -58.5t49 -18.5q33 0 48 20.5t15 56.5q0 33 -15.5 54.5t-47.5 21.5q-34 0 -50 -20.5t-16 -55.5z" />
<glyph unicode="&#xff;" horiz-adv-x="256" d="M142 -31q-17 -43 -39 -61.5t-56 -18.5q-14 0 -29.5 3t-23.5 9l13 49h4q8 -4 16 -5t16 -1q16 0 25.5 12t20.5 38l9 22l-97 232v2h68l59 -155h3l56 155h68v-2zM111 328q0 -12 -11 -27t-30 -15q-17 0 -29.5 14t-12.5 28q0 12 12.5 27t29.5 15q19 0 30 -15t11 -27zM232 328 q0 -12 -11 -27t-30 -15q-18 0 -30 14t-12 28q0 12 12 27t30 15q19 0 30 -15t11 -27z" />
<glyph unicode="&#x131;" horiz-adv-x="128" d="M30 0v250h68v-250h-68z" />
<glyph unicode="&#x152;" horiz-adv-x="576" d="M334 184q0 52 -32 88.5t-86 36.5t-86 -36.5t-32 -88.5t32 -88.5t86 -36.5t86 36.5t32 88.5zM334 368h223v-63h-154v-90h124v-62h-124v-92h163v-61h-231v50h-2q-18 -24 -48.5 -39.5t-82.5 -15.5q-70 0 -125 51.5t-55 137.5q0 81 56.5 135t131.5 54q50 0 80.5 -17.5 t41.5 -40.5h2v53z" />
<glyph unicode="&#x153;" horiz-adv-x="464" d="M152 48q32 0 45.5 20.5t13.5 56.5q0 34 -13.5 56t-45.5 22t-46.5 -22t-14.5 -56q0 -35 14.5 -56t46.5 -21zM240 37q-12 -17 -37 -29.5t-55 -12.5q-54 0 -90 35t-36 95q0 63 37.5 97t92.5 34q33 0 55 -12t38 -29q34 41 87 41q57 0 86.5 -37t29.5 -94v-24h-173 q3 -25 19 -40.5t43 -15.5q23 0 39 7.5t32 22.5h3l26 -48q-20 -16 -44 -24t-62 -8q-33 0 -55.5 14t-35.5 28zM384 146q-2 25 -13.5 42.5t-38.5 17.5q-26 0 -40.5 -18t-16.5 -42h109z" />
<glyph unicode="&#x178;" horiz-adv-x="336" d="M204 0h-73v169l-131 196v3h79l88 -131h3l90 131h76v-3l-132 -196v-169zM146 433q0 -13 -11 -27t-31 -14q-19 0 -31.5 13.5t-12.5 27.5q0 12 12.5 25.5t31.5 13.5q20 0 31 -13.5t11 -25.5zM276 433q0 -13 -11 -27t-32 -14q-19 0 -31 13.5t-12 27.5q0 12 12 25.5t31 13.5 q21 0 32 -13.5t11 -25.5z" />
<glyph unicode="&#x2c6;" horiz-adv-x="256" d="M109 368h38l76 -84v-6h-56l-39 39l-40 -39h-55v6z" />
<glyph unicode="&#x2da;" horiz-adv-x="256" d="M73 320q0 23 16 39.5t39 16.5t39.5 -16.5t16.5 -39.5t-16.5 -39t-39.5 -16t-39 16t-16 39zM110 320q0 -7 5.5 -12.5t12.5 -5.5q8 0 13.5 5.5t5.5 12.5q0 8 -5.5 13.5t-13.5 5.5q-7 0 -12.5 -5.5t-5.5 -13.5z" />
<glyph unicode="&#x2dc;" horiz-adv-x="256" d="M91 298q-10 0 -20 -8t-16 -19l-34 27q10 21 28 38t40 17q21 0 44 -12.5t37 -12.5q15 0 23.5 8t14.5 16l31 -31q-13 -21 -31.5 -35t-38.5 -14q-18 0 -41.5 13t-36.5 13z" />
<glyph unicode="&#x2000;" horiz-adv-x="251" />
<glyph unicode="&#x2001;" horiz-adv-x="502" />
<glyph unicode="&#x2002;" horiz-adv-x="251" />
<glyph unicode="&#x2003;" horiz-adv-x="502" />
<glyph unicode="&#x2004;" horiz-adv-x="167" />
<glyph unicode="&#x2005;" horiz-adv-x="125" />
<glyph unicode="&#x2006;" horiz-adv-x="83" />
<glyph unicode="&#x2007;" horiz-adv-x="83" />
<glyph unicode="&#x2008;" horiz-adv-x="62" />
<glyph unicode="&#x2009;" horiz-adv-x="100" />
<glyph unicode="&#x200a;" horiz-adv-x="27" />
<glyph unicode="&#x2010;" horiz-adv-x="208" d="M30 196h148v-67h-148v67z" />
<glyph unicode="&#x2011;" horiz-adv-x="208" d="M30 196h148v-67h-148v67z" />
<glyph unicode="&#x2013;" horiz-adv-x="272" d="M30 194h212v-64h-212v64z" />
<glyph unicode="&#x2014;" horiz-adv-x="528" d="M32 194h464v-64h-464v64z" />
<glyph unicode="&#x2018;" horiz-adv-x="160" d="M126 376l-36 -93q29 -19 35.5 -28t6.5 -18q0 -22 -15.5 -38t-36.5 -16t-36.5 15.5t-15.5 38.5q0 10 9.5 33t20.5 46l29 60h39z" />
<glyph unicode="&#x2019;" horiz-adv-x="160" d="M34 183l36 93q-29 19 -35.5 28t-6.5 18q0 22 15.5 38t36.5 16q22 0 37 -16t15 -38q0 -10 -9.5 -33t-20.5 -46l-29 -60h-39z" />
<glyph unicode="&#x201a;" horiz-adv-x="160" d="M34 -93l36 93q-29 19 -35.5 28t-6.5 18q0 22 15.5 38t36.5 16q22 0 37 -16t15 -38q0 -10 -9.5 -33t-20.5 -46l-29 -60h-39z" />
<glyph unicode="&#x201c;" d="M121 376l-36 -93q29 -19 35.5 -28t6.5 -18q0 -27 -15.5 -40.5t-36.5 -13.5t-36 15.5t-15 38.5q0 10 9.5 33t20.5 46l28 60h39zM258 376l-36 -93q29 -19 35.5 -28t6.5 -18q0 -22 -15.5 -38t-36.5 -16t-36 15.5t-15 38.5q0 10 9.5 33t20.5 46l28 60h39z" />
<glyph unicode="&#x201d;" d="M167 183l36 93q-29 19 -35.5 28t-6.5 18q0 27 15.5 40.5t36.5 13.5t36 -15.5t15 -38.5q0 -10 -9.5 -33t-20.5 -46l-28 -60h-39zM30 183l36 93q-29 19 -35.5 28t-6.5 18q0 22 15.5 38t36.5 16t36 -15.5t15 -38.5q0 -10 -9.5 -33t-20.5 -46l-28 -60h-39z" />
<glyph unicode="&#x201e;" d="M167 -93l36 93q-29 19 -35.5 28t-6.5 18q0 27 15.5 40.5t36.5 13.5t36 -15.5t15 -38.5q0 -10 -9.5 -33t-20.5 -46l-28 -60h-39zM30 -93l36 93q-29 19 -35.5 28t-6.5 18q0 22 15.5 38t36.5 16t36 -15.5t15 -38.5q0 -10 -9.5 -33t-20.5 -46l-28 -60h-39z" />
<glyph unicode="&#x2022;" horiz-adv-x="240" d="M41 176q0 31 24 55t55 24t55 -24t24 -55t-24 -55t-55 -24t-55 24t-24 55z" />
<glyph unicode="&#x2026;" horiz-adv-x="448" d="M420 51q0 -18 -13.5 -36.5t-37.5 -18.5q-21 0 -36.5 18t-15.5 37q0 18 15.5 36t36.5 18q24 0 37.5 -18t13.5 -36zM275 51q0 -18 -13.5 -36.5t-37.5 -18.5q-21 0 -36.5 18t-15.5 37q0 18 15.5 36t36.5 18q24 0 37.5 -18t13.5 -36zM131 51q0 -18 -13.5 -36.5t-37.5 -18.5 q-21 0 -36.5 18t-15.5 37q0 18 15.5 36t36.5 18q24 0 37.5 -18t13.5 -36z" />
<glyph unicode="&#x202f;" horiz-adv-x="100" />
<glyph unicode="&#x2039;" horiz-adv-x="208" d="M182 67v-70h-2l-155 108v44l155 110h2v-70l-91 -59v-4z" />
<glyph unicode="&#x203a;" horiz-adv-x="208" d="M117 126v4l-91 59v70h2l155 -108v-44l-155 -110h-2v70z" />
<glyph unicode="&#x2044;" horiz-adv-x="160" d="M-39 -13l-39 29l278 367l38 -28z" />
<glyph unicode="&#x205f;" horiz-adv-x="125" />
<glyph unicode="&#x2074;" horiz-adv-x="208" d="M164 246h30v-43h-30v-45h-50v45h-110v36l124 135h36v-128zM71 246h43v47l-43 -46v-1z" />
<glyph unicode="&#x20ac;" horiz-adv-x="304" d="M8 256h251v-51h-251v51zM8 165h251v-51h-251v51zM294 19q-23 -17 -48.5 -22t-54.5 -5q-69 0 -110 52.5t-41 139.5q0 84 43.5 138t107.5 54q38 0 60 -7t45 -28l-16 -61h-4q-14 15 -30 23.5t-48 8.5q-49 0 -67.5 -31t-18.5 -97t20.5 -98.5t72.5 -32.5q23 0 41 7t31 19h3z " />
<glyph unicode="&#x2122;" horiz-adv-x="528" d="M0 368h204v-52h-70v-187h-58v187h-76v52zM230 129v239h58l78 -163h6l83 163h49v-239h-54v118h-5l-56 -118h-43l-57 118h-5v-118h-54z" />
<glyph horiz-adv-x="256" d="M210 406v-6h-79l-59 41v7h89z" />
<glyph horiz-adv-x="256" d="M127 448h89v-7l-59 -41h-79v6z" />
<glyph horiz-adv-x="256" d="M94 452h68l66 -46v-6h-71l-29 22l-30 -22h-70v6z" />
<glyph horiz-adv-x="256" d="M90 415q-9 0 -19 -4.5t-17 -12.5l-34 33q13 13 30.5 24.5t37.5 11.5q18 0 41.5 -8t35.5 -8t20.5 5.5t16.5 11.5l28 -35q-13 -15 -29 -24.5t-37 -9.5q-17 0 -39 8t-35 8z" />
<glyph horiz-adv-x="256" d="M105 433q0 -13 -11 -27t-31 -14q-19 0 -31.5 13.5t-12.5 27.5q0 12 12.5 25.5t31.5 13.5q20 0 31 -13.5t11 -25.5zM235 433q0 -13 -11 -27t-32 -14q-19 0 -31 13.5t-12 27.5q0 12 12 25.5t31 13.5q21 0 32 -13.5t11 -25.5z" />
<glyph horiz-adv-x="256" d="M118 328q0 -12 -11 -28t-28 -16q-18 0 -30 15.5t-12 28.5q0 12 12 28t30 16q17 0 28 -16t11 -28zM218 328q0 -12 -10.5 -28t-28.5 -16q-17 0 -29 15.5t-12 28.5q0 12 12 28t29 16q18 0 28.5 -16t10.5 -28z" />
<glyph horiz-adv-x="256" d="M104 368h48l50 -74v-6h-48l-26 36l-27 -36h-47v6z" />
</font>
</defs>
</svg>
